<mxfile host="app.diagrams.net" agent="Mozilla/5.0 (Windows NT 10.0; Win64; x64) AppleWebKit/537.36 (KHTML, like Gecko) Chrome/129.0.0.0 Safari/537.36" version="24.7.17">
  <diagram name="Trang-1" id="WxA1R4b5yNmjerVU3twO">
    <mxGraphModel dx="1877" dy="565" grid="1" gridSize="10" guides="1" tooltips="1" connect="1" arrows="1" fold="1" page="1" pageScale="1" pageWidth="827" pageHeight="1169" math="0" shadow="0">
      <root>
        <mxCell id="0" />
        <mxCell id="1" parent="0" />
        <mxCell id="9NUMEEZ8bmOmCa07p7i1-1" value="Customer" style="swimlane;fontStyle=1;align=center;verticalAlign=top;childLayout=stackLayout;horizontal=1;startSize=26;horizontalStack=0;resizeParent=1;resizeParentMax=0;resizeLast=0;collapsible=1;marginBottom=0;whiteSpace=wrap;html=1;" vertex="1" parent="1">
          <mxGeometry x="40" y="40" width="190" height="250" as="geometry" />
        </mxCell>
        <mxCell id="9NUMEEZ8bmOmCa07p7i1-2" value="- name : String&lt;div&gt;- address : String&amp;nbsp;&lt;/div&gt;&lt;div&gt;- phone : String&amp;nbsp;&lt;/div&gt;&lt;div&gt;&lt;br&gt;&lt;/div&gt;&lt;div&gt;&lt;br&gt;&lt;/div&gt;&lt;div&gt;&lt;br&gt;&lt;/div&gt;&lt;div&gt;&lt;br&gt;&lt;/div&gt;&lt;div&gt;&lt;br&gt;&lt;/div&gt;" style="text;strokeColor=none;fillColor=none;align=left;verticalAlign=top;spacingLeft=4;spacingRight=4;overflow=hidden;rotatable=0;points=[[0,0.5],[1,0.5]];portConstraint=eastwest;whiteSpace=wrap;html=1;" vertex="1" parent="9NUMEEZ8bmOmCa07p7i1-1">
          <mxGeometry y="26" width="190" height="54" as="geometry" />
        </mxCell>
        <mxCell id="9NUMEEZ8bmOmCa07p7i1-3" value="" style="line;strokeWidth=1;fillColor=none;align=left;verticalAlign=middle;spacingTop=-1;spacingLeft=3;spacingRight=3;rotatable=0;labelPosition=right;points=[];portConstraint=eastwest;strokeColor=inherit;" vertex="1" parent="9NUMEEZ8bmOmCa07p7i1-1">
          <mxGeometry y="80" width="190" height="48" as="geometry" />
        </mxCell>
        <mxCell id="9NUMEEZ8bmOmCa07p7i1-4" value="+ Customer()&amp;nbsp;&lt;div&gt;+ setName (n : String) : void&lt;/div&gt;&lt;div&gt;+ setAddress (a : String): void&lt;br&gt;&lt;div&gt;+ setPhone (p : String) : void&lt;/div&gt;&lt;/div&gt;&lt;div&gt;&lt;br&gt;&lt;/div&gt;&lt;div&gt;+ getName () : String&lt;/div&gt;&lt;div&gt;+ getAddress() : String&lt;/div&gt;&lt;div&gt;+ getPhone() : String&lt;/div&gt;" style="text;strokeColor=none;fillColor=none;align=left;verticalAlign=top;spacingLeft=4;spacingRight=4;overflow=hidden;rotatable=0;points=[[0,0.5],[1,0.5]];portConstraint=eastwest;whiteSpace=wrap;html=1;" vertex="1" parent="9NUMEEZ8bmOmCa07p7i1-1">
          <mxGeometry y="128" width="190" height="122" as="geometry" />
        </mxCell>
        <mxCell id="9NUMEEZ8bmOmCa07p7i1-13" value="Pet" style="swimlane;fontStyle=1;align=center;verticalAlign=top;childLayout=stackLayout;horizontal=1;startSize=26;horizontalStack=0;resizeParent=1;resizeParentMax=0;resizeLast=0;collapsible=1;marginBottom=0;whiteSpace=wrap;html=1;" vertex="1" parent="1">
          <mxGeometry x="290" y="40" width="200" height="240" as="geometry" />
        </mxCell>
        <mxCell id="9NUMEEZ8bmOmCa07p7i1-14" value="- breed : String&amp;nbsp;&lt;div&gt;- age : Int&amp;nbsp;&lt;/div&gt;&lt;div&gt;- weight : Double&lt;/div&gt;" style="text;strokeColor=none;fillColor=none;align=left;verticalAlign=top;spacingLeft=4;spacingRight=4;overflow=hidden;rotatable=0;points=[[0,0.5],[1,0.5]];portConstraint=eastwest;whiteSpace=wrap;html=1;" vertex="1" parent="9NUMEEZ8bmOmCa07p7i1-13">
          <mxGeometry y="26" width="200" height="54" as="geometry" />
        </mxCell>
        <mxCell id="9NUMEEZ8bmOmCa07p7i1-15" value="" style="line;strokeWidth=1;fillColor=none;align=left;verticalAlign=middle;spacingTop=-1;spacingLeft=3;spacingRight=3;rotatable=0;labelPosition=right;points=[];portConstraint=eastwest;strokeColor=inherit;" vertex="1" parent="9NUMEEZ8bmOmCa07p7i1-13">
          <mxGeometry y="80" width="200" height="20" as="geometry" />
        </mxCell>
        <mxCell id="9NUMEEZ8bmOmCa07p7i1-16" value="+ Pet()&amp;nbsp;&lt;div&gt;+ setBreed ( b : String ): void&lt;/div&gt;&lt;div&gt;+ setAge ( a : int ) : void&lt;/div&gt;&lt;div&gt;+ setWeight (w : double ) : void&lt;/div&gt;&lt;div&gt;&lt;br&gt;&lt;/div&gt;&lt;div&gt;+ getBreed() : String&lt;/div&gt;&lt;div&gt;+ getAddress() : String&lt;/div&gt;&lt;div&gt;+ getWeight() : Double&lt;/div&gt;" style="text;strokeColor=none;fillColor=none;align=left;verticalAlign=top;spacingLeft=4;spacingRight=4;overflow=hidden;rotatable=0;points=[[0,0.5],[1,0.5]];portConstraint=eastwest;whiteSpace=wrap;html=1;" vertex="1" parent="9NUMEEZ8bmOmCa07p7i1-13">
          <mxGeometry y="100" width="200" height="140" as="geometry" />
        </mxCell>
        <mxCell id="9NUMEEZ8bmOmCa07p7i1-17" value="Service" style="swimlane;fontStyle=1;align=center;verticalAlign=top;childLayout=stackLayout;horizontal=1;startSize=26;horizontalStack=0;resizeParent=1;resizeParentMax=0;resizeLast=0;collapsible=1;marginBottom=0;whiteSpace=wrap;html=1;" vertex="1" parent="1">
          <mxGeometry x="540" y="40" width="210" height="250" as="geometry" />
        </mxCell>
        <mxCell id="9NUMEEZ8bmOmCa07p7i1-18" value="&lt;div&gt;- Care charges : Double&lt;/div&gt;&lt;div&gt;&lt;br&gt;&lt;/div&gt;" style="text;strokeColor=none;fillColor=none;align=left;verticalAlign=top;spacingLeft=4;spacingRight=4;overflow=hidden;rotatable=0;points=[[0,0.5],[1,0.5]];portConstraint=eastwest;whiteSpace=wrap;html=1;" vertex="1" parent="9NUMEEZ8bmOmCa07p7i1-17">
          <mxGeometry y="26" width="210" height="74" as="geometry" />
        </mxCell>
        <mxCell id="9NUMEEZ8bmOmCa07p7i1-19" value="" style="line;strokeWidth=1;fillColor=none;align=left;verticalAlign=middle;spacingTop=-1;spacingLeft=3;spacingRight=3;rotatable=0;labelPosition=right;points=[];portConstraint=eastwest;strokeColor=inherit;" vertex="1" parent="9NUMEEZ8bmOmCa07p7i1-17">
          <mxGeometry y="100" width="210" height="10" as="geometry" />
        </mxCell>
        <mxCell id="9NUMEEZ8bmOmCa07p7i1-20" value="+ Service()&lt;div&gt;+ setCareCharges ( c : double) : void&lt;/div&gt;&lt;div&gt;&lt;br&gt;&lt;/div&gt;&lt;div&gt;+ getCareCharges () : Double&lt;/div&gt;&lt;div&gt;+ getGroomingServices() : Double&lt;/div&gt;&lt;div&gt;&lt;br&gt;&lt;/div&gt;&lt;div&gt;+ getSalesTax() : double&lt;/div&gt;&lt;div&gt;+ getTotalCost() : double&lt;/div&gt;" style="text;strokeColor=none;fillColor=none;align=left;verticalAlign=top;spacingLeft=4;spacingRight=4;overflow=hidden;rotatable=0;points=[[0,0.5],[1,0.5]];portConstraint=eastwest;whiteSpace=wrap;html=1;" vertex="1" parent="9NUMEEZ8bmOmCa07p7i1-17">
          <mxGeometry y="110" width="210" height="140" as="geometry" />
        </mxCell>
        <mxCell id="9NUMEEZ8bmOmCa07p7i1-21" value="Problem 2" style="whiteSpace=wrap;html=1;" vertex="1" parent="1">
          <mxGeometry x="-80" y="330" width="120" height="60" as="geometry" />
        </mxCell>
        <mxCell id="9NUMEEZ8bmOmCa07p7i1-22" value="Customer" style="swimlane;fontStyle=1;align=center;verticalAlign=top;childLayout=stackLayout;horizontal=1;startSize=26;horizontalStack=0;resizeParent=1;resizeParentMax=0;resizeLast=0;collapsible=1;marginBottom=0;whiteSpace=wrap;html=1;" vertex="1" parent="1">
          <mxGeometry x="40" y="400" width="190" height="212" as="geometry" />
        </mxCell>
        <mxCell id="9NUMEEZ8bmOmCa07p7i1-23" value="- name : String&lt;div&gt;- address : String&amp;nbsp;&lt;/div&gt;&lt;div&gt;- phone : String&amp;nbsp;&lt;/div&gt;&lt;div&gt;&lt;br&gt;&lt;/div&gt;&lt;div&gt;&lt;br&gt;&lt;/div&gt;&lt;div&gt;&lt;br&gt;&lt;/div&gt;&lt;div&gt;&lt;br&gt;&lt;/div&gt;&lt;div&gt;&lt;br&gt;&lt;/div&gt;" style="text;strokeColor=none;fillColor=none;align=left;verticalAlign=top;spacingLeft=4;spacingRight=4;overflow=hidden;rotatable=0;points=[[0,0.5],[1,0.5]];portConstraint=eastwest;whiteSpace=wrap;html=1;" vertex="1" parent="9NUMEEZ8bmOmCa07p7i1-22">
          <mxGeometry y="26" width="190" height="54" as="geometry" />
        </mxCell>
        <mxCell id="9NUMEEZ8bmOmCa07p7i1-24" value="" style="line;strokeWidth=1;fillColor=none;align=left;verticalAlign=middle;spacingTop=-1;spacingLeft=3;spacingRight=3;rotatable=0;labelPosition=right;points=[];portConstraint=eastwest;strokeColor=inherit;" vertex="1" parent="9NUMEEZ8bmOmCa07p7i1-22">
          <mxGeometry y="80" width="190" height="10" as="geometry" />
        </mxCell>
        <mxCell id="9NUMEEZ8bmOmCa07p7i1-25" value="+ Customer()&amp;nbsp;&lt;div&gt;+ setName (n : String) : void&lt;/div&gt;&lt;div&gt;+ setAddress (a : String): void&lt;br&gt;&lt;div&gt;+ setPhone (p : String) : void&lt;/div&gt;&lt;/div&gt;&lt;div&gt;&lt;br&gt;&lt;/div&gt;&lt;div&gt;+ getName () : String&lt;/div&gt;&lt;div&gt;+ getAddress() : String&lt;/div&gt;&lt;div&gt;+ getPhone() : String&lt;/div&gt;" style="text;strokeColor=none;fillColor=none;align=left;verticalAlign=top;spacingLeft=4;spacingRight=4;overflow=hidden;rotatable=0;points=[[0,0.5],[1,0.5]];portConstraint=eastwest;whiteSpace=wrap;html=1;" vertex="1" parent="9NUMEEZ8bmOmCa07p7i1-22">
          <mxGeometry y="90" width="190" height="122" as="geometry" />
        </mxCell>
        <mxCell id="9NUMEEZ8bmOmCa07p7i1-26" value="Baker" style="swimlane;fontStyle=1;align=center;verticalAlign=top;childLayout=stackLayout;horizontal=1;startSize=26;horizontalStack=0;resizeParent=1;resizeParentMax=0;resizeLast=0;collapsible=1;marginBottom=0;whiteSpace=wrap;html=1;" vertex="1" parent="1">
          <mxGeometry x="280" y="400" width="220" height="280" as="geometry" />
        </mxCell>
        <mxCell id="9NUMEEZ8bmOmCa07p7i1-27" value="- typeCake : String&lt;div&gt;- numTiers : Int&amp;nbsp;&lt;/div&gt;&lt;div&gt;- eventDate : Int&amp;nbsp;&lt;/div&gt;&lt;div&gt;&lt;br&gt;&lt;/div&gt;&lt;div&gt;&lt;br&gt;&lt;/div&gt;&lt;div&gt;&lt;br&gt;&lt;/div&gt;&lt;div&gt;&lt;br&gt;&lt;/div&gt;&lt;div&gt;&lt;br&gt;&lt;/div&gt;&lt;div&gt;&lt;br&gt;&lt;/div&gt;" style="text;strokeColor=none;fillColor=none;align=left;verticalAlign=top;spacingLeft=4;spacingRight=4;overflow=hidden;rotatable=0;points=[[0,0.5],[1,0.5]];portConstraint=eastwest;whiteSpace=wrap;html=1;" vertex="1" parent="9NUMEEZ8bmOmCa07p7i1-26">
          <mxGeometry y="26" width="220" height="74" as="geometry" />
        </mxCell>
        <mxCell id="9NUMEEZ8bmOmCa07p7i1-28" value="" style="line;strokeWidth=1;fillColor=none;align=left;verticalAlign=middle;spacingTop=-1;spacingLeft=3;spacingRight=3;rotatable=0;labelPosition=right;points=[];portConstraint=eastwest;strokeColor=inherit;" vertex="1" parent="9NUMEEZ8bmOmCa07p7i1-26">
          <mxGeometry y="100" width="220" height="10" as="geometry" />
        </mxCell>
        <mxCell id="9NUMEEZ8bmOmCa07p7i1-29" value="+ Baker()&amp;nbsp;&lt;div&gt;+ setTypeCake ( t : String) : void&lt;/div&gt;&lt;div&gt;+ setNumTiers (n : Int ) : void&amp;nbsp;&lt;/div&gt;&lt;div&gt;+ setEventDate : ( e : Int ) : void&lt;/div&gt;&lt;div&gt;+ setPriceQuote ( p : double ) : void&lt;/div&gt;&lt;div&gt;&lt;br&gt;&lt;/div&gt;&lt;div&gt;+ getTypeCake() : String&lt;/div&gt;&lt;div&gt;+ getNumTiers() : Int&amp;nbsp;&lt;/div&gt;&lt;div&gt;+ getEventDate() : Int&lt;/div&gt;&lt;div&gt;&lt;br&gt;&lt;/div&gt;&lt;div&gt;+ PriceQuote() : Double&lt;/div&gt;&lt;div&gt;&amp;nbsp;&lt;/div&gt;" style="text;strokeColor=none;fillColor=none;align=left;verticalAlign=top;spacingLeft=4;spacingRight=4;overflow=hidden;rotatable=0;points=[[0,0.5],[1,0.5]];portConstraint=eastwest;whiteSpace=wrap;html=1;" vertex="1" parent="9NUMEEZ8bmOmCa07p7i1-26">
          <mxGeometry y="110" width="220" height="170" as="geometry" />
        </mxCell>
        <mxCell id="9NUMEEZ8bmOmCa07p7i1-30" value="PriceQuote" style="swimlane;fontStyle=1;align=center;verticalAlign=top;childLayout=stackLayout;horizontal=1;startSize=26;horizontalStack=0;resizeParent=1;resizeParentMax=0;resizeLast=0;collapsible=1;marginBottom=0;whiteSpace=wrap;html=1;" vertex="1" parent="1">
          <mxGeometry x="565" y="400" width="225" height="240" as="geometry" />
        </mxCell>
        <mxCell id="9NUMEEZ8bmOmCa07p7i1-31" value="+ costIngredients : double&amp;nbsp;&lt;div&gt;+ laborCharges : double&amp;nbsp;&lt;/div&gt;&lt;div&gt;&lt;br&gt;&lt;/div&gt;" style="text;strokeColor=none;fillColor=none;align=left;verticalAlign=top;spacingLeft=4;spacingRight=4;overflow=hidden;rotatable=0;points=[[0,0.5],[1,0.5]];portConstraint=eastwest;whiteSpace=wrap;html=1;" vertex="1" parent="9NUMEEZ8bmOmCa07p7i1-30">
          <mxGeometry y="26" width="225" height="64" as="geometry" />
        </mxCell>
        <mxCell id="9NUMEEZ8bmOmCa07p7i1-32" value="" style="line;strokeWidth=1;fillColor=none;align=left;verticalAlign=middle;spacingTop=-1;spacingLeft=3;spacingRight=3;rotatable=0;labelPosition=right;points=[];portConstraint=eastwest;strokeColor=inherit;" vertex="1" parent="9NUMEEZ8bmOmCa07p7i1-30">
          <mxGeometry y="90" width="225" height="8" as="geometry" />
        </mxCell>
        <mxCell id="9NUMEEZ8bmOmCa07p7i1-33" value="+PriceQuote()&amp;nbsp;&lt;div&gt;+ setCostIngredients( c : double) : void&lt;/div&gt;&lt;div&gt;+ setLaborCharges ( l : double ) : void&lt;/div&gt;&lt;div&gt;&lt;br&gt;&lt;/div&gt;&lt;div&gt;+ getCostIngredients() : Double&amp;nbsp;&lt;/div&gt;&lt;div&gt;+ getLaborCharges() : Double&amp;nbsp;&lt;/div&gt;&lt;div&gt;&lt;br&gt;&lt;/div&gt;&lt;div&gt;+ getSalesTax() : double&lt;/div&gt;&lt;div&gt;+ getDeliveryFree() : Double&lt;/div&gt;&lt;div&gt;&lt;br&gt;&lt;/div&gt;" style="text;strokeColor=none;fillColor=none;align=left;verticalAlign=top;spacingLeft=4;spacingRight=4;overflow=hidden;rotatable=0;points=[[0,0.5],[1,0.5]];portConstraint=eastwest;whiteSpace=wrap;html=1;" vertex="1" parent="9NUMEEZ8bmOmCa07p7i1-30">
          <mxGeometry y="98" width="225" height="142" as="geometry" />
        </mxCell>
        <mxCell id="9NUMEEZ8bmOmCa07p7i1-34" value="Problem 3" style="html=1;whiteSpace=wrap;" vertex="1" parent="1">
          <mxGeometry x="-80" y="700" width="120" height="60" as="geometry" />
        </mxCell>
        <mxCell id="9NUMEEZ8bmOmCa07p7i1-36" value="Customer" style="swimlane;fontStyle=1;align=center;verticalAlign=top;childLayout=stackLayout;horizontal=1;startSize=26;horizontalStack=0;resizeParent=1;resizeParentMax=0;resizeLast=0;collapsible=1;marginBottom=0;whiteSpace=wrap;html=1;" vertex="1" parent="1">
          <mxGeometry x="40" y="780" width="210" height="240" as="geometry" />
        </mxCell>
        <mxCell id="9NUMEEZ8bmOmCa07p7i1-37" value="- name : String&amp;nbsp;&lt;div&gt;- address : String&amp;nbsp;&lt;/div&gt;&lt;div&gt;- licenseNum : String&amp;nbsp;&lt;/div&gt;" style="text;strokeColor=none;fillColor=none;align=left;verticalAlign=top;spacingLeft=4;spacingRight=4;overflow=hidden;rotatable=0;points=[[0,0.5],[1,0.5]];portConstraint=eastwest;whiteSpace=wrap;html=1;" vertex="1" parent="9NUMEEZ8bmOmCa07p7i1-36">
          <mxGeometry y="26" width="210" height="64" as="geometry" />
        </mxCell>
        <mxCell id="9NUMEEZ8bmOmCa07p7i1-38" value="" style="line;strokeWidth=1;fillColor=none;align=left;verticalAlign=middle;spacingTop=-1;spacingLeft=3;spacingRight=3;rotatable=0;labelPosition=right;points=[];portConstraint=eastwest;strokeColor=inherit;" vertex="1" parent="9NUMEEZ8bmOmCa07p7i1-36">
          <mxGeometry y="90" width="210" height="8" as="geometry" />
        </mxCell>
        <mxCell id="9NUMEEZ8bmOmCa07p7i1-39" value="+ Customer()&amp;nbsp;&lt;div&gt;+ setName ( n : String ) : void&lt;/div&gt;&lt;div&gt;+ setAddress ( a : String ) : void&amp;nbsp;&lt;/div&gt;&lt;div&gt;+ setLicenseNum ( l : String ) : void&amp;nbsp;&lt;/div&gt;&lt;div&gt;&lt;br&gt;&lt;/div&gt;&lt;div&gt;+ getName() : String&amp;nbsp;&lt;/div&gt;&lt;div&gt;+ getAddress() : String&amp;nbsp;&lt;/div&gt;&lt;div&gt;+ getLicenseNum : String&lt;/div&gt;" style="text;strokeColor=none;fillColor=none;align=left;verticalAlign=top;spacingLeft=4;spacingRight=4;overflow=hidden;rotatable=0;points=[[0,0.5],[1,0.5]];portConstraint=eastwest;whiteSpace=wrap;html=1;" vertex="1" parent="9NUMEEZ8bmOmCa07p7i1-36">
          <mxGeometry y="98" width="210" height="142" as="geometry" />
        </mxCell>
        <mxCell id="9NUMEEZ8bmOmCa07p7i1-40" value="Car" style="swimlane;fontStyle=1;align=center;verticalAlign=top;childLayout=stackLayout;horizontal=1;startSize=26;horizontalStack=0;resizeParent=1;resizeParentMax=0;resizeLast=0;collapsible=1;marginBottom=0;whiteSpace=wrap;html=1;" vertex="1" parent="1">
          <mxGeometry x="300" y="780" width="220" height="308" as="geometry" />
        </mxCell>
        <mxCell id="9NUMEEZ8bmOmCa07p7i1-41" value="- Make : String&lt;div&gt;- ModelCar : String&lt;div&gt;- RentalPeriod : Int&lt;/div&gt;&lt;div&gt;- MileageLimit : Double&amp;nbsp;&lt;/div&gt;&lt;div&gt;&lt;br&gt;&lt;/div&gt;&lt;/div&gt;" style="text;strokeColor=none;fillColor=none;align=left;verticalAlign=top;spacingLeft=4;spacingRight=4;overflow=hidden;rotatable=0;points=[[0,0.5],[1,0.5]];portConstraint=eastwest;whiteSpace=wrap;html=1;" vertex="1" parent="9NUMEEZ8bmOmCa07p7i1-40">
          <mxGeometry y="26" width="220" height="94" as="geometry" />
        </mxCell>
        <mxCell id="9NUMEEZ8bmOmCa07p7i1-42" value="" style="line;strokeWidth=1;fillColor=none;align=left;verticalAlign=middle;spacingTop=-1;spacingLeft=3;spacingRight=3;rotatable=0;labelPosition=right;points=[];portConstraint=eastwest;strokeColor=inherit;" vertex="1" parent="9NUMEEZ8bmOmCa07p7i1-40">
          <mxGeometry y="120" width="220" height="8" as="geometry" />
        </mxCell>
        <mxCell id="9NUMEEZ8bmOmCa07p7i1-43" value="+ Car()&amp;nbsp;&lt;div&gt;+ setMake( m : String ) : void&amp;nbsp;&lt;/div&gt;&lt;div&gt;+ setModelCar ( m : String ) : void&lt;/div&gt;&lt;div&gt;+ setRentalPreiod ( r : Int ) : void&amp;nbsp;&lt;/div&gt;&lt;div&gt;+ setMileageLimit ( m : Double ) : void&lt;/div&gt;&lt;div&gt;&lt;br&gt;&lt;/div&gt;&lt;div&gt;+ getMake() : String&amp;nbsp;&lt;/div&gt;&lt;div&gt;+ getModelCar() : String&amp;nbsp;&lt;/div&gt;&lt;div&gt;+ getRentalPeriod() : Int&amp;nbsp;&lt;/div&gt;&lt;div&gt;+ getMileageLimit() : Double&lt;/div&gt;&lt;div&gt;&lt;br&gt;&lt;/div&gt;&lt;div&gt;+ getRentalAgreement() : Double&amp;nbsp;&lt;/div&gt;" style="text;strokeColor=none;fillColor=none;align=left;verticalAlign=top;spacingLeft=4;spacingRight=4;overflow=hidden;rotatable=0;points=[[0,0.5],[1,0.5]];portConstraint=eastwest;whiteSpace=wrap;html=1;" vertex="1" parent="9NUMEEZ8bmOmCa07p7i1-40">
          <mxGeometry y="128" width="220" height="180" as="geometry" />
        </mxCell>
        <mxCell id="9NUMEEZ8bmOmCa07p7i1-44" value="RentalAgreement" style="swimlane;fontStyle=1;align=center;verticalAlign=top;childLayout=stackLayout;horizontal=1;startSize=26;horizontalStack=0;resizeParent=1;resizeParentMax=0;resizeLast=0;collapsible=1;marginBottom=0;whiteSpace=wrap;html=1;" vertex="1" parent="1">
          <mxGeometry x="560" y="780" width="270" height="250" as="geometry" />
        </mxCell>
        <mxCell id="9NUMEEZ8bmOmCa07p7i1-45" value="- BaseRentalFee : Double&amp;nbsp;&lt;div&gt;- AtLeastMileageFee : Double&amp;nbsp;&lt;/div&gt;&lt;div&gt;&lt;br&gt;&lt;/div&gt;" style="text;strokeColor=none;fillColor=none;align=left;verticalAlign=top;spacingLeft=4;spacingRight=4;overflow=hidden;rotatable=0;points=[[0,0.5],[1,0.5]];portConstraint=eastwest;whiteSpace=wrap;html=1;" vertex="1" parent="9NUMEEZ8bmOmCa07p7i1-44">
          <mxGeometry y="26" width="270" height="64" as="geometry" />
        </mxCell>
        <mxCell id="9NUMEEZ8bmOmCa07p7i1-46" value="" style="line;strokeWidth=1;fillColor=none;align=left;verticalAlign=middle;spacingTop=-1;spacingLeft=3;spacingRight=3;rotatable=0;labelPosition=right;points=[];portConstraint=eastwest;strokeColor=inherit;" vertex="1" parent="9NUMEEZ8bmOmCa07p7i1-44">
          <mxGeometry y="90" width="270" height="8" as="geometry" />
        </mxCell>
        <mxCell id="9NUMEEZ8bmOmCa07p7i1-47" value="+ RentalAgreement()&amp;nbsp;&lt;div&gt;+ setBaseRentalFee( b : double ) : void&lt;/div&gt;&lt;div&gt;+ setAtLeastMileageFee ( l : double ) : void&lt;/div&gt;&lt;div&gt;&lt;br&gt;&lt;/div&gt;&lt;div&gt;+ getBaseRentalFee() : Double&lt;/div&gt;&lt;div&gt;+ getAtLeastMileageFee() : Double&amp;nbsp;&lt;/div&gt;&lt;div&gt;&lt;br&gt;&lt;/div&gt;&lt;div&gt;+ getTotalRentalCost() : Double&lt;/div&gt;&lt;div&gt;+ getTaxes() : Double&amp;nbsp;&lt;/div&gt;" style="text;strokeColor=none;fillColor=none;align=left;verticalAlign=top;spacingLeft=4;spacingRight=4;overflow=hidden;rotatable=0;points=[[0,0.5],[1,0.5]];portConstraint=eastwest;whiteSpace=wrap;html=1;" vertex="1" parent="9NUMEEZ8bmOmCa07p7i1-44">
          <mxGeometry y="98" width="270" height="152" as="geometry" />
        </mxCell>
        <mxCell id="9NUMEEZ8bmOmCa07p7i1-48" value="Problem 4&amp;nbsp;" style="html=1;whiteSpace=wrap;" vertex="1" parent="1">
          <mxGeometry x="-70" y="1119" width="110" height="50" as="geometry" />
        </mxCell>
        <mxCell id="9NUMEEZ8bmOmCa07p7i1-49" value="Customer" style="swimlane;fontStyle=1;align=center;verticalAlign=top;childLayout=stackLayout;horizontal=1;startSize=26;horizontalStack=0;resizeParent=1;resizeParentMax=0;resizeLast=0;collapsible=1;marginBottom=0;whiteSpace=wrap;html=1;" vertex="1" parent="1">
          <mxGeometry x="40" y="1190" width="220" height="250" as="geometry" />
        </mxCell>
        <mxCell id="9NUMEEZ8bmOmCa07p7i1-50" value="&lt;span style=&quot;color: rgb(0, 0, 0); font-family: Helvetica; font-size: 12px; font-style: normal; font-variant-ligatures: normal; font-variant-caps: normal; font-weight: 400; letter-spacing: normal; orphans: 2; text-align: left; text-indent: 0px; text-transform: none; widows: 2; word-spacing: 0px; -webkit-text-stroke-width: 0px; white-space: normal; background-color: rgb(251, 251, 251); text-decoration-thickness: initial; text-decoration-style: initial; text-decoration-color: initial; display: inline !important; float: none;&quot;&gt;- name : String&amp;nbsp;&lt;/span&gt;&lt;div style=&quot;forced-color-adjust: none; color: rgb(0, 0, 0); font-family: Helvetica; font-size: 12px; font-style: normal; font-variant-ligatures: normal; font-variant-caps: normal; font-weight: 400; letter-spacing: normal; orphans: 2; text-align: left; text-indent: 0px; text-transform: none; widows: 2; word-spacing: 0px; -webkit-text-stroke-width: 0px; white-space: normal; background-color: rgb(251, 251, 251); text-decoration-thickness: initial; text-decoration-style: initial; text-decoration-color: initial;&quot;&gt;- address : String&amp;nbsp;&lt;/div&gt;&lt;div style=&quot;forced-color-adjust: none; color: rgb(0, 0, 0); font-family: Helvetica; font-size: 12px; font-style: normal; font-variant-ligatures: normal; font-variant-caps: normal; font-weight: 400; letter-spacing: normal; orphans: 2; text-align: left; text-indent: 0px; text-transform: none; widows: 2; word-spacing: 0px; -webkit-text-stroke-width: 0px; white-space: normal; background-color: rgb(251, 251, 251); text-decoration-thickness: initial; text-decoration-style: initial; text-decoration-color: initial;&quot;&gt;- Phone : String&amp;nbsp;&amp;nbsp;&lt;/div&gt;&lt;div&gt;&lt;br&gt;&lt;/div&gt;" style="text;strokeColor=none;fillColor=none;align=left;verticalAlign=top;spacingLeft=4;spacingRight=4;overflow=hidden;rotatable=0;points=[[0,0.5],[1,0.5]];portConstraint=eastwest;whiteSpace=wrap;html=1;" vertex="1" parent="9NUMEEZ8bmOmCa07p7i1-49">
          <mxGeometry y="26" width="220" height="74" as="geometry" />
        </mxCell>
        <mxCell id="9NUMEEZ8bmOmCa07p7i1-51" value="" style="line;strokeWidth=1;fillColor=none;align=left;verticalAlign=middle;spacingTop=-1;spacingLeft=3;spacingRight=3;rotatable=0;labelPosition=right;points=[];portConstraint=eastwest;strokeColor=inherit;" vertex="1" parent="9NUMEEZ8bmOmCa07p7i1-49">
          <mxGeometry y="100" width="220" height="8" as="geometry" />
        </mxCell>
        <mxCell id="9NUMEEZ8bmOmCa07p7i1-52" value="+ Customer()&amp;nbsp;&lt;div&gt;+ setName (n : String) : void&lt;/div&gt;&lt;div&gt;+ setAddress (a : String): void&lt;br&gt;&lt;div&gt;+ setPhone (p : String) : void&lt;/div&gt;&lt;/div&gt;&lt;div&gt;&lt;br&gt;&lt;/div&gt;&lt;div&gt;+ getName () : String&lt;/div&gt;&lt;div&gt;+ getAddress() : String&lt;/div&gt;&lt;div&gt;+ getPhone() : String&lt;/div&gt;" style="text;strokeColor=none;fillColor=none;align=left;verticalAlign=top;spacingLeft=4;spacingRight=4;overflow=hidden;rotatable=0;points=[[0,0.5],[1,0.5]];portConstraint=eastwest;whiteSpace=wrap;html=1;" vertex="1" parent="9NUMEEZ8bmOmCa07p7i1-49">
          <mxGeometry y="108" width="220" height="142" as="geometry" />
        </mxCell>
        <mxCell id="9NUMEEZ8bmOmCa07p7i1-54" value="Photographer" style="swimlane;fontStyle=1;align=center;verticalAlign=top;childLayout=stackLayout;horizontal=1;startSize=26;horizontalStack=0;resizeParent=1;resizeParentMax=0;resizeLast=0;collapsible=1;marginBottom=0;whiteSpace=wrap;html=1;" vertex="1" parent="1">
          <mxGeometry x="310" y="1190" width="220" height="260" as="geometry" />
        </mxCell>
        <mxCell id="9NUMEEZ8bmOmCa07p7i1-55" value="- session : String&lt;div&gt;- sessionDuration : Int&amp;nbsp;&lt;/div&gt;&lt;div&gt;- date : int&amp;nbsp;&lt;/div&gt;" style="text;strokeColor=none;fillColor=none;align=left;verticalAlign=top;spacingLeft=4;spacingRight=4;overflow=hidden;rotatable=0;points=[[0,0.5],[1,0.5]];portConstraint=eastwest;whiteSpace=wrap;html=1;" vertex="1" parent="9NUMEEZ8bmOmCa07p7i1-54">
          <mxGeometry y="26" width="220" height="74" as="geometry" />
        </mxCell>
        <mxCell id="9NUMEEZ8bmOmCa07p7i1-56" value="" style="line;strokeWidth=1;fillColor=none;align=left;verticalAlign=middle;spacingTop=-1;spacingLeft=3;spacingRight=3;rotatable=0;labelPosition=right;points=[];portConstraint=eastwest;strokeColor=inherit;" vertex="1" parent="9NUMEEZ8bmOmCa07p7i1-54">
          <mxGeometry y="100" width="220" height="8" as="geometry" />
        </mxCell>
        <mxCell id="9NUMEEZ8bmOmCa07p7i1-57" value="+ Photographer()&amp;nbsp;&lt;div&gt;+ setSession (s : String ) : void&lt;/div&gt;&lt;div&gt;+ setSessionDuration ( s : Int ) : void&lt;/div&gt;&lt;div&gt;+ setDate ( d : int ) : void&amp;nbsp;&amp;nbsp;&lt;/div&gt;&lt;div&gt;&lt;br&gt;&lt;/div&gt;&lt;div&gt;+ getSession() : String&lt;/div&gt;&lt;div&gt;+ getSessionDuration() : Int&lt;/div&gt;&lt;div&gt;+ getDate() : Int&amp;nbsp;&amp;nbsp;&lt;/div&gt;&lt;div&gt;&lt;br&gt;&lt;/div&gt;&lt;div&gt;&lt;br&gt;&lt;/div&gt;" style="text;strokeColor=none;fillColor=none;align=left;verticalAlign=top;spacingLeft=4;spacingRight=4;overflow=hidden;rotatable=0;points=[[0,0.5],[1,0.5]];portConstraint=eastwest;whiteSpace=wrap;html=1;" vertex="1" parent="9NUMEEZ8bmOmCa07p7i1-54">
          <mxGeometry y="108" width="220" height="152" as="geometry" />
        </mxCell>
        <mxCell id="9NUMEEZ8bmOmCa07p7i1-58" value="Confirmation" style="swimlane;fontStyle=1;align=center;verticalAlign=top;childLayout=stackLayout;horizontal=1;startSize=26;horizontalStack=0;resizeParent=1;resizeParentMax=0;resizeLast=0;collapsible=1;marginBottom=0;whiteSpace=wrap;html=1;" vertex="1" parent="1">
          <mxGeometry x="600" y="1190" width="250" height="260" as="geometry" />
        </mxCell>
        <mxCell id="9NUMEEZ8bmOmCa07p7i1-59" value="- baseSessionFee : double&lt;div&gt;- EditingCharges : double&amp;nbsp;&lt;/div&gt;&lt;div&gt;&lt;br&gt;&lt;/div&gt;" style="text;strokeColor=none;fillColor=none;align=left;verticalAlign=top;spacingLeft=4;spacingRight=4;overflow=hidden;rotatable=0;points=[[0,0.5],[1,0.5]];portConstraint=eastwest;whiteSpace=wrap;html=1;" vertex="1" parent="9NUMEEZ8bmOmCa07p7i1-58">
          <mxGeometry y="26" width="250" height="74" as="geometry" />
        </mxCell>
        <mxCell id="9NUMEEZ8bmOmCa07p7i1-60" value="" style="line;strokeWidth=1;fillColor=none;align=left;verticalAlign=middle;spacingTop=-1;spacingLeft=3;spacingRight=3;rotatable=0;labelPosition=right;points=[];portConstraint=eastwest;strokeColor=inherit;" vertex="1" parent="9NUMEEZ8bmOmCa07p7i1-58">
          <mxGeometry y="100" width="250" height="8" as="geometry" />
        </mxCell>
        <mxCell id="9NUMEEZ8bmOmCa07p7i1-61" value="+ Confirmation()&amp;nbsp;&lt;div&gt;+ setBaseSessionFee ( b : double ) : void&amp;nbsp;&lt;/div&gt;&lt;div&gt;+ setEditingCharges ( e : double ) : void&lt;/div&gt;&lt;div&gt;&lt;br&gt;&lt;/div&gt;&lt;div&gt;+ getBaseSessionFee() : double&lt;/div&gt;&lt;div&gt;+ getEditingCharges() : double&lt;/div&gt;&lt;div&gt;&lt;br&gt;&lt;/div&gt;&lt;div&gt;+ getTotalPrice() : double&amp;nbsp;&lt;/div&gt;&lt;div&gt;+ getSalesTax() : double&lt;/div&gt;" style="text;strokeColor=none;fillColor=none;align=left;verticalAlign=top;spacingLeft=4;spacingRight=4;overflow=hidden;rotatable=0;points=[[0,0.5],[1,0.5]];portConstraint=eastwest;whiteSpace=wrap;html=1;" vertex="1" parent="9NUMEEZ8bmOmCa07p7i1-58">
          <mxGeometry y="108" width="250" height="152" as="geometry" />
        </mxCell>
        <mxCell id="9NUMEEZ8bmOmCa07p7i1-62" value="Problem 5&amp;nbsp;" style="html=1;whiteSpace=wrap;" vertex="1" parent="1">
          <mxGeometry x="-70" y="1500" width="110" height="50" as="geometry" />
        </mxCell>
        <mxCell id="9NUMEEZ8bmOmCa07p7i1-63" value="User&amp;nbsp;" style="swimlane;fontStyle=1;align=center;verticalAlign=top;childLayout=stackLayout;horizontal=1;startSize=26;horizontalStack=0;resizeParent=1;resizeParentMax=0;resizeLast=0;collapsible=1;marginBottom=0;whiteSpace=wrap;html=1;" vertex="1" parent="1">
          <mxGeometry x="40" y="1580" width="220" height="350" as="geometry" />
        </mxCell>
        <mxCell id="9NUMEEZ8bmOmCa07p7i1-64" value="- ID : String&amp;nbsp;&lt;div&gt;- name : String&amp;nbsp;&lt;/div&gt;&lt;div&gt;- Email : String&amp;nbsp;&lt;/div&gt;&lt;div&gt;- bookHolding : int&amp;nbsp;&lt;/div&gt;" style="text;strokeColor=none;fillColor=none;align=left;verticalAlign=top;spacingLeft=4;spacingRight=4;overflow=hidden;rotatable=0;points=[[0,0.5],[1,0.5]];portConstraint=eastwest;whiteSpace=wrap;html=1;" vertex="1" parent="9NUMEEZ8bmOmCa07p7i1-63">
          <mxGeometry y="26" width="220" height="84" as="geometry" />
        </mxCell>
        <mxCell id="9NUMEEZ8bmOmCa07p7i1-65" value="" style="line;strokeWidth=1;fillColor=none;align=left;verticalAlign=middle;spacingTop=-1;spacingLeft=3;spacingRight=3;rotatable=0;labelPosition=right;points=[];portConstraint=eastwest;strokeColor=inherit;" vertex="1" parent="9NUMEEZ8bmOmCa07p7i1-63">
          <mxGeometry y="110" width="220" height="8" as="geometry" />
        </mxCell>
        <mxCell id="9NUMEEZ8bmOmCa07p7i1-66" value="+ User()&lt;div&gt;+ CheckAvailableBook()&amp;nbsp;&lt;/div&gt;&lt;div&gt;+ RequestBooks()&amp;nbsp;&lt;/div&gt;&lt;div&gt;+ CheckCurrentBooks()&amp;nbsp;&lt;/div&gt;&lt;div&gt;&amp;nbsp;&lt;div&gt;+ setID ( I : String ) : void&lt;/div&gt;&lt;div&gt;+ setName ( n : String ) : void&amp;nbsp;&lt;/div&gt;&lt;div&gt;+ setEmail ( e : String ) : void&amp;nbsp;&lt;/div&gt;&lt;div&gt;+ setBookHolding ( b : Int ) : void&amp;nbsp;&lt;/div&gt;&lt;div&gt;&lt;br&gt;&lt;/div&gt;&lt;div&gt;&lt;br&gt;&lt;/div&gt;&lt;div&gt;+ getID() : String&lt;/div&gt;&lt;div&gt;+ getName() : String&amp;nbsp;&lt;/div&gt;&lt;div&gt;+ getEmail() : String&amp;nbsp;&lt;/div&gt;&lt;div&gt;+ getBookHolding() : Int&lt;/div&gt;&lt;/div&gt;" style="text;strokeColor=none;fillColor=none;align=left;verticalAlign=top;spacingLeft=4;spacingRight=4;overflow=hidden;rotatable=0;points=[[0,0.5],[1,0.5]];portConstraint=eastwest;whiteSpace=wrap;html=1;" vertex="1" parent="9NUMEEZ8bmOmCa07p7i1-63">
          <mxGeometry y="118" width="220" height="232" as="geometry" />
        </mxCell>
        <mxCell id="9NUMEEZ8bmOmCa07p7i1-67" value="CheckAvailableBook" style="swimlane;fontStyle=1;align=center;verticalAlign=top;childLayout=stackLayout;horizontal=1;startSize=26;horizontalStack=0;resizeParent=1;resizeParentMax=0;resizeLast=0;collapsible=1;marginBottom=0;whiteSpace=wrap;html=1;" vertex="1" parent="1">
          <mxGeometry x="310" y="1580" width="210" height="110" as="geometry" />
        </mxCell>
        <mxCell id="9NUMEEZ8bmOmCa07p7i1-68" value="- checkAvailable : bool&amp;nbsp;" style="text;strokeColor=none;fillColor=none;align=left;verticalAlign=top;spacingLeft=4;spacingRight=4;overflow=hidden;rotatable=0;points=[[0,0.5],[1,0.5]];portConstraint=eastwest;whiteSpace=wrap;html=1;" vertex="1" parent="9NUMEEZ8bmOmCa07p7i1-67">
          <mxGeometry y="26" width="210" height="26" as="geometry" />
        </mxCell>
        <mxCell id="9NUMEEZ8bmOmCa07p7i1-69" value="" style="line;strokeWidth=1;fillColor=none;align=left;verticalAlign=middle;spacingTop=-1;spacingLeft=3;spacingRight=3;rotatable=0;labelPosition=right;points=[];portConstraint=eastwest;strokeColor=inherit;" vertex="1" parent="9NUMEEZ8bmOmCa07p7i1-67">
          <mxGeometry y="52" width="210" height="8" as="geometry" />
        </mxCell>
        <mxCell id="9NUMEEZ8bmOmCa07p7i1-70" value="+ CheckBook()&amp;nbsp;&lt;div&gt;+ setCheckbook ( c : bool ) : bool&amp;nbsp;&lt;/div&gt;" style="text;strokeColor=none;fillColor=none;align=left;verticalAlign=top;spacingLeft=4;spacingRight=4;overflow=hidden;rotatable=0;points=[[0,0.5],[1,0.5]];portConstraint=eastwest;whiteSpace=wrap;html=1;" vertex="1" parent="9NUMEEZ8bmOmCa07p7i1-67">
          <mxGeometry y="60" width="210" height="50" as="geometry" />
        </mxCell>
        <mxCell id="9NUMEEZ8bmOmCa07p7i1-71" value="RequestBooks" style="swimlane;fontStyle=1;align=center;verticalAlign=top;childLayout=stackLayout;horizontal=1;startSize=26;horizontalStack=0;resizeParent=1;resizeParentMax=0;resizeLast=0;collapsible=1;marginBottom=0;whiteSpace=wrap;html=1;" vertex="1" parent="1">
          <mxGeometry x="565" y="1580" width="210" height="240" as="geometry" />
        </mxCell>
        <mxCell id="9NUMEEZ8bmOmCa07p7i1-72" value="- ISBN : String&amp;nbsp;&lt;div&gt;- Titile : String&amp;nbsp;&lt;/div&gt;&lt;div&gt;- NumDays : int&amp;nbsp;&lt;/div&gt;" style="text;strokeColor=none;fillColor=none;align=left;verticalAlign=top;spacingLeft=4;spacingRight=4;overflow=hidden;rotatable=0;points=[[0,0.5],[1,0.5]];portConstraint=eastwest;whiteSpace=wrap;html=1;" vertex="1" parent="9NUMEEZ8bmOmCa07p7i1-71">
          <mxGeometry y="26" width="210" height="64" as="geometry" />
        </mxCell>
        <mxCell id="9NUMEEZ8bmOmCa07p7i1-73" value="" style="line;strokeWidth=1;fillColor=none;align=left;verticalAlign=middle;spacingTop=-1;spacingLeft=3;spacingRight=3;rotatable=0;labelPosition=right;points=[];portConstraint=eastwest;strokeColor=inherit;" vertex="1" parent="9NUMEEZ8bmOmCa07p7i1-71">
          <mxGeometry y="90" width="210" height="8" as="geometry" />
        </mxCell>
        <mxCell id="9NUMEEZ8bmOmCa07p7i1-74" value="+ RequestBooks()&amp;nbsp;&lt;div&gt;&lt;br&gt;&lt;/div&gt;&lt;div&gt;+ setISBN ( I : String ) : void&amp;nbsp;&lt;/div&gt;&lt;div&gt;+ setTitle ( t : String ) : void&amp;nbsp;&lt;/div&gt;&lt;div&gt;+ setNumDays ( n : int ) : void&amp;nbsp;&lt;/div&gt;&lt;div&gt;&lt;br&gt;&lt;/div&gt;&lt;div&gt;+ getISBN() : String&lt;/div&gt;&lt;div&gt;+ getTitle() : String&amp;nbsp;&lt;/div&gt;&lt;div&gt;+ getNumDays() : Int&amp;nbsp;&lt;/div&gt;" style="text;strokeColor=none;fillColor=none;align=left;verticalAlign=top;spacingLeft=4;spacingRight=4;overflow=hidden;rotatable=0;points=[[0,0.5],[1,0.5]];portConstraint=eastwest;whiteSpace=wrap;html=1;" vertex="1" parent="9NUMEEZ8bmOmCa07p7i1-71">
          <mxGeometry y="98" width="210" height="142" as="geometry" />
        </mxCell>
        <mxCell id="9NUMEEZ8bmOmCa07p7i1-75" value="CheckCurrentBooks" style="swimlane;fontStyle=1;align=center;verticalAlign=top;childLayout=stackLayout;horizontal=1;startSize=26;horizontalStack=0;resizeParent=1;resizeParentMax=0;resizeLast=0;collapsible=1;marginBottom=0;whiteSpace=wrap;html=1;" vertex="1" parent="1">
          <mxGeometry x="310" y="1720" width="210" height="86" as="geometry" />
        </mxCell>
        <mxCell id="9NUMEEZ8bmOmCa07p7i1-76" value="+ field: type" style="text;strokeColor=none;fillColor=none;align=left;verticalAlign=top;spacingLeft=4;spacingRight=4;overflow=hidden;rotatable=0;points=[[0,0.5],[1,0.5]];portConstraint=eastwest;whiteSpace=wrap;html=1;" vertex="1" parent="9NUMEEZ8bmOmCa07p7i1-75">
          <mxGeometry y="26" width="210" height="26" as="geometry" />
        </mxCell>
        <mxCell id="9NUMEEZ8bmOmCa07p7i1-77" value="" style="line;strokeWidth=1;fillColor=none;align=left;verticalAlign=middle;spacingTop=-1;spacingLeft=3;spacingRight=3;rotatable=0;labelPosition=right;points=[];portConstraint=eastwest;strokeColor=inherit;" vertex="1" parent="9NUMEEZ8bmOmCa07p7i1-75">
          <mxGeometry y="52" width="210" height="8" as="geometry" />
        </mxCell>
        <mxCell id="9NUMEEZ8bmOmCa07p7i1-78" value="+ method(type): type" style="text;strokeColor=none;fillColor=none;align=left;verticalAlign=top;spacingLeft=4;spacingRight=4;overflow=hidden;rotatable=0;points=[[0,0.5],[1,0.5]];portConstraint=eastwest;whiteSpace=wrap;html=1;" vertex="1" parent="9NUMEEZ8bmOmCa07p7i1-75">
          <mxGeometry y="60" width="210" height="26" as="geometry" />
        </mxCell>
      </root>
    </mxGraphModel>
  </diagram>
</mxfile>
